
<svg width="860" height="352" viewBox="0 0 860 352" fill="none" xmlns="http://www.w3.org/2000/svg">
<circle cx="81" cy="81" r="73.5" transform="translate(46 95)" stroke="black" stroke-width="15"/>
<circle cx="81" cy="81" r="73.5" transform="translate(74 151)" stroke="black" stroke-width="15"/>
<path d="M106.026 5.3033C108.955 2.37437 108.955 -2.37437 106.026 -5.3033L58.296 -53.033C55.3671 -55.9619 50.6183 -55.9619 47.6894 -53.033C44.7605 -50.1041 44.7605 -45.3553 47.6894 -42.4264L90.1158 0L47.6894 42.4264C44.7605 45.3553 44.7605 50.1041 47.6894 53.033C50.6183 55.9619 55.3671 55.9619 58.296 53.033L106.026 5.3033ZM0 7.5H100.722V-7.5H0V7.5Z" transform="translate(192 136) rotate(-29.1099)" fill="black"/>
<line y1="-7.5" x2="101" y2="-7.5" transform="translate(223 244)" stroke="black" stroke-width="15"/>
<path d="M0 0H61" transform="translate(293.5 207) rotate(90)" stroke="black" stroke-width="15"/>
<ellipse cx="74.375" cy="76.6643" rx="74.375" ry="76.6643" transform="translate(341 58.621)" fill="#E21A1A"/>
<ellipse cx="74.375" cy="76.6643" rx="74.375" ry="76.6643" transform="translate(430.25 56)" fill="#E21A1A"/>
<rect width="136.482" height="136.482" transform="translate(364.552 191.847) scale(0.971815 1.02741) rotate(-45)" fill="#E21A1A"/>
<path d="M0 20C0 8.95431 8.95431 0 20 0H140C151.046 0 160 8.95431 160 20V127C160 138.046 151.046 147 140 147H20C8.95431 147 0 138.046 0 127V20Z" transform="translate(625 79)" fill="black"/>
<rect width="101" height="79" transform="translate(655 194)" fill="black"/>
<path d="M50 25C50 38.8071 38.8071 50 25 50C11.1929 50 0 38.8071 0 25C0 11.1929 11.1929 3.08311e-06 25 3.08311e-06C38.8071 3.08311e-06 50 11.1929 50 25Z" transform="translate(639 121)" fill="white"/>
<path d="M50 25C50 38.8071 38.8071 50 25 50C11.1929 50 0 38.8071 0 25C0 11.1929 11.1929 3.08311e-06 25 3.08311e-06C38.8071 3.08311e-06 50 11.1929 50 25Z" transform="translate(722 121)" fill="white"/>
<rect width="16" height="11" transform="translate(697 176)" fill="white"/>
<rect width="16" height="31" transform="translate(671 232)" fill="white"/>
<rect width="16" height="31" transform="translate(689 232)" fill="white"/>
<rect width="16" height="31" transform="translate(707 232)" fill="white"/>
<rect width="16" height="31" transform="translate(725 232)" fill="white"/>
<rect x="8" y="8" width="844" height="336" rx="32" stroke="black" stroke-width="16"/>
<path d="M2.496 6.784V4.48H21.824H41.216V4.736C41.3013 5.03467 41.6213 7.78667 42.176 12.992C42.816 18.3253 43.1573 21.0773 43.2 21.248V21.504H40.896H38.592C38.592 21.3333 38.528 20.8853 38.4 20.16C38.1867 18.4533 37.952 17.152 37.696 16.256C36.8427 12.928 34.9653 10.7733 32.064 9.792C31.6373 9.62133 31.168 9.49333 30.656 9.408C29.8027 9.23733 27.712 9.13067 24.384 9.088H20.096V16.512V23.936H21.12C23.5947 23.936 25.3013 23.4667 26.24 22.528C27.0507 21.7173 27.52 20.1173 27.648 17.728V16.448H29.952H32.256V26.24V36.032H29.952H27.648V34.752C27.52 32.3627 27.0507 30.7627 26.24 29.952C25.3013 29.0133 23.5947 28.544 21.12 28.544H20.096V35.968V43.392H24.448H28.736V45.696V48H27.84L20.864 47.872C16.8107 47.8293 13.0133 47.8293 9.472 47.872C5.33333 47.9573 3.28533 48 3.328 48H2.496V45.696V43.392H5.952H9.408V26.24V9.088H5.952H2.496V6.784ZM48.8085 6.4V4.096H62.9525C72.6378 4.096 77.6725 4.11733 78.0565 4.16C81.5978 4.416 84.7552 5.248 87.5285 6.656C92.9898 9.42933 96.4458 13.952 97.8965 20.224C97.9818 20.6933 98.0672 21.1627 98.1525 21.632C98.8778 25.7707 98.7072 29.6747 97.6405 33.344C96.0192 38.8907 92.7338 42.9013 87.7845 45.376C85.4378 46.6133 82.6005 47.4453 79.2725 47.872C78.8032 47.9147 73.5765 47.9573 63.5925 48H48.8085V45.696V43.392H52.2645H55.7205V26.048V8.704H52.2645H48.8085V6.4ZM75.0485 8.768C74.7498 8.72533 73.1072 8.704 70.1205 8.704H66.0245V26.048V43.392H70.6965C74.0672 43.3493 75.9018 43.3067 76.2005 43.264C79.9125 42.7947 82.7285 41.4933 84.6485 39.36C86.2698 37.5253 87.2085 34.7093 87.4645 30.912C87.6352 27.4987 87.6352 24.32 87.4645 21.376C87.4218 21.1627 87.4005 20.992 87.4005 20.864C86.9738 16.0853 85.2885 12.7573 82.3445 10.88C81.9605 10.6667 81.5552 10.4533 81.1285 10.24C79.5072 9.472 77.4805 8.98133 75.0485 8.768ZM105.246 6.4V4.096H106.078C106.035 4.096 108.083 4.13867 112.222 4.224C115.763 4.26667 119.305 4.26667 122.846 4.224L128.926 4.096H129.758V6.4V8.704H126.302H122.846V17.152V25.536L123.422 25.024C123.251 25.1947 126.409 22.3787 132.894 16.576L141.79 8.704H139.934H138.014V6.4V4.096H138.718C138.675 4.096 140.553 4.13867 144.35 4.224C147.593 4.26667 150.238 4.26667 152.286 4.224L155.806 4.096H156.254V6.4V8.704H152.542H148.766L141.854 14.848L134.878 21.056L142.878 32.256L150.878 43.392H154.078H157.278V45.696V48H156.638L151.71 47.872C148.851 47.8293 145.609 47.8293 141.982 47.872C137.758 47.9573 135.667 48 135.71 48H134.878V45.696V43.392H136.926L139.038 43.328L133.342 35.456L127.582 27.52L125.214 29.632L122.846 31.68V37.568V43.392H126.302H129.758V45.696V48H128.926C128.969 48 126.921 47.9573 122.782 47.872C119.241 47.8293 115.699 47.8293 112.158 47.872L106.078 48H105.246V45.696V43.392H108.702H112.158V26.048V8.704H108.702H105.246V6.4Z" transform="translate(384 121)" fill="black"/>
</svg>
